<svg width="62" height="62" viewBox="0 0 62 62" fill="none" xmlns="http://www.w3.org/2000/svg">
<path d="M4.65321 15.7887L31 0.57735L57.3468 15.7887V46.2113L31 61.4226L4.65321 46.2113V15.7887Z" fill="black" stroke="black"/>
<path d="M21.696 36H20.208L19.212 30.672H19.14L18.156 36H16.668L15.48 29.76H16.452L17.448 35.352H17.52L18.564 29.76H19.8L20.844 35.352H20.916L21.912 29.76H22.884L21.696 36ZM24.4472 29.76H25.4312V36H24.4472V29.76ZM24.6752 27.408C24.7312 27.4 24.8192 27.396 24.9392 27.396C25.0592 27.396 25.1472 27.4 25.2032 27.408C25.2592 27.416 25.3192 27.44 25.3832 27.48C25.5032 27.536 25.5632 27.676 25.5632 27.9C25.5632 28.116 25.5512 28.268 25.5272 28.356C25.5032 28.436 25.4552 28.496 25.3832 28.536C25.3192 28.568 25.2592 28.588 25.2032 28.596C25.1472 28.604 25.0592 28.608 24.9392 28.608C24.8192 28.608 24.7312 28.604 24.6752 28.596C24.6192 28.588 24.5592 28.568 24.4952 28.536C24.3752 28.472 24.3152 28.332 24.3152 28.116C24.3152 27.892 24.3272 27.74 24.3512 27.66C24.3752 27.572 24.4192 27.512 24.4832 27.48C24.5552 27.44 24.6192 27.416 24.6752 27.408ZM29.8798 32.52C30.3118 32.576 30.6278 32.736 30.8278 33C31.0358 33.264 31.1398 33.688 31.1398 34.272C31.1398 34.848 30.9838 35.304 30.6718 35.64C30.3678 35.976 29.8518 36.144 29.1238 36.144C28.4038 36.144 27.7718 36.012 27.2278 35.748L27.4198 35.148C28.1398 35.284 28.6958 35.352 29.0878 35.352C29.4798 35.352 29.7598 35.276 29.9278 35.124C30.0958 34.964 30.1798 34.728 30.1798 34.416C30.1798 34.096 30.1318 33.856 30.0358 33.696C29.9478 33.536 29.7598 33.436 29.4718 33.396L28.4998 33.264C28.0278 33.2 27.7078 33.024 27.5398 32.736C27.3718 32.44 27.2878 32.016 27.2878 31.464C27.2878 30.912 27.4478 30.468 27.7678 30.132C28.0958 29.796 28.5398 29.628 29.0998 29.628C29.8358 29.628 30.4558 29.76 30.9598 30.024L30.7798 30.696C30.1318 30.544 29.6278 30.468 29.2678 30.468C28.9158 30.468 28.6558 30.528 28.4878 30.648C28.3278 30.768 28.2478 31.008 28.2478 31.368C28.2478 31.728 28.2838 31.976 28.3558 32.112C28.4278 32.248 28.6118 32.34 28.9078 32.388L29.8798 32.52ZM32.9433 29.76H33.9273V36H32.9433V29.76ZM33.1713 27.408C33.2273 27.4 33.3153 27.396 33.4353 27.396C33.5553 27.396 33.6433 27.4 33.6993 27.408C33.7553 27.416 33.8153 27.44 33.8793 27.48C33.9993 27.536 34.0593 27.676 34.0593 27.9C34.0593 28.116 34.0473 28.268 34.0233 28.356C33.9993 28.436 33.9513 28.496 33.8793 28.536C33.8153 28.568 33.7553 28.588 33.6993 28.596C33.6433 28.604 33.5553 28.608 33.4353 28.608C33.3153 28.608 33.2273 28.604 33.1713 28.596C33.1153 28.588 33.0553 28.568 32.9913 28.536C32.8713 28.472 32.8113 28.332 32.8113 28.116C32.8113 27.892 32.8233 27.74 32.8473 27.66C32.8713 27.572 32.9153 27.512 32.9793 27.48C33.0513 27.44 33.1153 27.416 33.1713 27.408ZM40.2479 31.68V36H39.2639V31.548C39.2639 31.156 39.2039 30.88 39.0839 30.72C38.9639 30.56 38.6759 30.48 38.2199 30.48C37.7719 30.48 37.4679 30.572 37.3079 30.756C37.1479 30.932 37.0679 31.188 37.0679 31.524V36H36.0839V27.36H37.0079V30.3C37.3839 29.9 37.9239 29.7 38.6279 29.7C39.3079 29.7 39.7559 29.904 39.9719 30.312C40.1559 30.656 40.2479 31.112 40.2479 31.68ZM43.0991 31.464V32.7C43.9151 32.7 44.3991 32.672 44.5511 32.616C44.7111 32.552 44.8511 32.488 44.9711 32.424C45.1871 32.312 45.2951 32.092 45.2951 31.764V31.488C45.2951 31.096 45.2351 30.82 45.1151 30.66C44.9951 30.5 44.7071 30.42 44.2511 30.42C43.8031 30.42 43.4991 30.512 43.3391 30.696C43.1791 30.872 43.0991 31.128 43.0991 31.464ZM43.2071 29.784C43.3431 29.72 43.4991 29.68 43.6751 29.664C43.8511 29.64 44.0991 29.628 44.4191 29.628C44.7471 29.628 45.0511 29.672 45.3311 29.76C45.6111 29.848 45.8151 29.988 45.9431 30.18C46.0791 30.364 46.1671 30.556 46.2071 30.756C46.2551 30.948 46.2791 31.172 46.2791 31.428C46.2791 31.676 46.2631 31.884 46.2311 32.052C46.1991 32.212 46.1591 32.352 46.1111 32.472C46.0711 32.592 45.9991 32.7 45.8951 32.796C45.7991 32.884 45.7071 32.96 45.6191 33.024C45.5391 33.088 45.4151 33.144 45.2471 33.192C45.0871 33.232 44.9471 33.264 44.8271 33.288C44.7071 33.312 44.5351 33.332 44.3111 33.348C43.9751 33.372 43.5711 33.384 43.0991 33.384V34.284C43.0991 34.7 43.1871 34.984 43.3631 35.136C43.5391 35.28 43.8071 35.352 44.1671 35.352C44.8311 35.352 45.4271 35.24 45.9551 35.016L46.1471 35.616C45.5471 35.968 44.8831 36.144 44.1551 36.144C43.7711 36.144 43.4591 36.1 43.2191 36.012C42.9871 35.932 42.8191 35.84 42.7151 35.736C42.6191 35.632 42.5351 35.536 42.4631 35.448C42.3911 35.36 42.3311 35.232 42.2831 35.064C42.2431 34.896 42.2111 34.752 42.1871 34.632C42.1631 34.504 42.1471 34.328 42.1391 34.104C42.1151 33.72 42.1031 33.36 42.1031 33.024V32.304C42.1031 31.88 42.1191 31.576 42.1511 31.392C42.1831 31.208 42.2151 31.036 42.2471 30.876C42.2791 30.708 42.3231 30.584 42.3791 30.504C42.4351 30.416 42.4991 30.316 42.5711 30.204C42.6511 30.092 42.7431 30.008 42.8471 29.952C42.9591 29.896 43.0791 29.84 43.2071 29.784Z" fill="white"/>
</svg>
