<svg width="800" height="800" viewBox="0 0 800 800" fill="none" xmlns="http://www.w3.org/2000/svg">
<g clip-path="url(#clip0_28_337)">
<path d="M2.24113e-05 2.39476C1.3226 2.39476 2.39476 1.3226 2.39476 2.24113e-05C2.39476 -1.32255 1.3226 -2.39471 2.24113e-05 -2.39471C-1.32255 -2.39471 -2.39471 -1.32255 -2.39471 2.24113e-05C-2.39471 1.3226 -1.32255 2.39476 2.24113e-05 2.39476Z" fill="#4F279B"/>
<path d="M66.6667 2.39476C67.9893 2.39476 69.0614 1.3226 69.0614 2.24113e-05C69.0614 -1.32255 67.9893 -2.39471 66.6667 -2.39471C65.3441 -2.39471 64.272 -1.32255 64.272 2.24113e-05C64.272 1.3226 65.3441 2.39476 66.6667 2.39476Z" fill="#4F279B"/>
<path d="M133.333 2.39476C134.656 2.39476 135.728 1.3226 135.728 2.24113e-05C135.728 -1.32255 134.656 -2.39471 133.333 -2.39471C132.011 -2.39471 130.939 -1.32255 130.939 2.24113e-05C130.939 1.3226 132.011 2.39476 133.333 2.39476Z" fill="#4F279B"/>
<path d="M200 2.39476C201.323 2.39476 202.395 1.3226 202.395 2.24113e-05C202.395 -1.32255 201.323 -2.39471 200 -2.39471C198.677 -2.39471 197.605 -1.32255 197.605 2.24113e-05C197.605 1.3226 198.677 2.39476 200 2.39476Z" fill="#4F279B"/>
<path d="M266.667 2.39476C267.989 2.39476 269.061 1.3226 269.061 2.24113e-05C269.061 -1.32255 267.989 -2.39471 266.667 -2.39471C265.344 -2.39471 264.272 -1.32255 264.272 2.24113e-05C264.272 1.3226 265.344 2.39476 266.667 2.39476Z" fill="#4F279B"/>
<path d="M333.333 2.39476C334.656 2.39476 335.728 1.3226 335.728 2.24113e-05C335.728 -1.32255 334.656 -2.39471 333.333 -2.39471C332.011 -2.39471 330.939 -1.32255 330.939 2.24113e-05C330.939 1.3226 332.011 2.39476 333.333 2.39476Z" fill="#4F279B"/>
<path d="M400 2.39476C401.323 2.39476 402.395 1.3226 402.395 2.24113e-05C402.395 -1.32255 401.323 -2.39471 400 -2.39471C398.677 -2.39471 397.605 -1.32255 397.605 2.24113e-05C397.605 1.3226 398.677 2.39476 400 2.39476Z" fill="#4F279B"/>
<path d="M466.667 2.39476C467.989 2.39476 469.061 1.3226 469.061 2.24113e-05C469.061 -1.32255 467.989 -2.39471 466.667 -2.39471C465.344 -2.39471 464.272 -1.32255 464.272 2.24113e-05C464.272 1.3226 465.344 2.39476 466.667 2.39476Z" fill="#4F279B"/>
<path d="M533.333 2.39476C534.656 2.39476 535.728 1.3226 535.728 2.24113e-05C535.728 -1.32255 534.656 -2.39471 533.333 -2.39471C532.011 -2.39471 530.939 -1.32255 530.939 2.24113e-05C530.939 1.3226 532.011 2.39476 533.333 2.39476Z" fill="#4F279B"/>
<path d="M600 2.39476C601.323 2.39476 602.395 1.3226 602.395 2.24113e-05C602.395 -1.32255 601.323 -2.39471 600 -2.39471C598.677 -2.39471 597.605 -1.32255 597.605 2.24113e-05C597.605 1.3226 598.677 2.39476 600 2.39476Z" fill="#4F279B"/>
<path d="M666.667 2.39476C667.989 2.39476 669.061 1.3226 669.061 2.24113e-05C669.061 -1.32255 667.989 -2.39471 666.667 -2.39471C665.344 -2.39471 664.272 -1.32255 664.272 2.24113e-05C664.272 1.3226 665.344 2.39476 666.667 2.39476Z" fill="#4F279B"/>
<path d="M733.333 2.39476C734.656 2.39476 735.728 1.3226 735.728 2.24113e-05C735.728 -1.32255 734.656 -2.39471 733.333 -2.39471C732.011 -2.39471 730.939 -1.32255 730.939 2.24113e-05C730.939 1.3226 732.011 2.39476 733.333 2.39476Z" fill="#4F279B"/>
<path d="M800 2.39476C801.323 2.39476 802.395 1.3226 802.395 2.24113e-05C802.395 -1.32255 801.323 -2.39471 800 -2.39471C798.677 -2.39471 797.605 -1.32255 797.605 2.24113e-05C797.605 1.3226 798.677 2.39476 800 2.39476Z" fill="#4F279B"/>
<path d="M2.24113e-05 69.0614C1.3226 69.0614 2.39476 67.9893 2.39476 66.6667C2.39476 65.3441 1.3226 64.272 2.24113e-05 64.272C-1.32255 64.272 -2.39471 65.3441 -2.39471 66.6667C-2.39471 67.9893 -1.32255 69.0614 2.24113e-05 69.0614Z" fill="#4F279B"/>
<path d="M66.6667 69.0614C67.9893 69.0614 69.0614 67.9893 69.0614 66.6667C69.0614 65.3441 67.9893 64.272 66.6667 64.272C65.3441 64.272 64.272 65.3441 64.272 66.6667C64.272 67.9893 65.3441 69.0614 66.6667 69.0614Z" fill="#4F279B"/>
<path d="M133.333 69.0614C134.656 69.0614 135.728 67.9893 135.728 66.6667C135.728 65.3441 134.656 64.272 133.333 64.272C132.011 64.272 130.939 65.3441 130.939 66.6667C130.939 67.9893 132.011 69.0614 133.333 69.0614Z" fill="#4F279B"/>
<path d="M200 69.0614C201.323 69.0614 202.395 67.9893 202.395 66.6667C202.395 65.3441 201.323 64.272 200 64.272C198.677 64.272 197.605 65.3441 197.605 66.6667C197.605 67.9893 198.677 69.0614 200 69.0614Z" fill="#4F279B"/>
<path d="M266.667 69.0614C267.989 69.0614 269.061 67.9893 269.061 66.6667C269.061 65.3441 267.989 64.272 266.667 64.272C265.344 64.272 264.272 65.3441 264.272 66.6667C264.272 67.9893 265.344 69.0614 266.667 69.0614Z" fill="#4F279B"/>
<path d="M333.333 69.0614C334.656 69.0614 335.728 67.9893 335.728 66.6667C335.728 65.3441 334.656 64.272 333.333 64.272C332.011 64.272 330.939 65.3441 330.939 66.6667C330.939 67.9893 332.011 69.0614 333.333 69.0614Z" fill="#4F279B"/>
<path d="M400 69.0614C401.323 69.0614 402.395 67.9893 402.395 66.6667C402.395 65.3441 401.323 64.272 400 64.272C398.677 64.272 397.605 65.3441 397.605 66.6667C397.605 67.9893 398.677 69.0614 400 69.0614Z" fill="#4F279B"/>
<path d="M466.667 69.0614C467.989 69.0614 469.061 67.9893 469.061 66.6667C469.061 65.3441 467.989 64.272 466.667 64.272C465.344 64.272 464.272 65.3441 464.272 66.6667C464.272 67.9893 465.344 69.0614 466.667 69.0614Z" fill="#4F279B"/>
<path d="M533.333 69.0614C534.656 69.0614 535.728 67.9893 535.728 66.6667C535.728 65.3441 534.656 64.272 533.333 64.272C532.011 64.272 530.939 65.3441 530.939 66.6667C530.939 67.9893 532.011 69.0614 533.333 69.0614Z" fill="#4F279B"/>
<path d="M600 69.0614C601.323 69.0614 602.395 67.9893 602.395 66.6667C602.395 65.3441 601.323 64.272 600 64.272C598.677 64.272 597.605 65.3441 597.605 66.6667C597.605 67.9893 598.677 69.0614 600 69.0614Z" fill="#4F279B"/>
<path d="M666.667 69.0614C667.989 69.0614 669.061 67.9893 669.061 66.6667C669.061 65.3441 667.989 64.272 666.667 64.272C665.344 64.272 664.272 65.3441 664.272 66.6667C664.272 67.9893 665.344 69.0614 666.667 69.0614Z" fill="#4F279B"/>
<path d="M733.333 69.0614C734.656 69.0614 735.728 67.9893 735.728 66.6667C735.728 65.3441 734.656 64.272 733.333 64.272C732.011 64.272 730.939 65.3441 730.939 66.6667C730.939 67.9893 732.011 69.0614 733.333 69.0614Z" fill="#4F279B"/>
<path d="M800 69.0614C801.323 69.0614 802.395 67.9893 802.395 66.6667C802.395 65.3441 801.323 64.272 800 64.272C798.677 64.272 797.605 65.3441 797.605 66.6667C797.605 67.9893 798.677 69.0614 800 69.0614Z" fill="#4F279B"/>
<path d="M2.24113e-05 135.728C1.3226 135.728 2.39476 134.656 2.39476 133.333C2.39476 132.011 1.3226 130.939 2.24113e-05 130.939C-1.32255 130.939 -2.39471 132.011 -2.39471 133.333C-2.39471 134.656 -1.32255 135.728 2.24113e-05 135.728Z" fill="#4F279B"/>
<path d="M66.6667 135.728C67.9893 135.728 69.0614 134.656 69.0614 133.333C69.0614 132.011 67.9893 130.939 66.6667 130.939C65.3441 130.939 64.272 132.011 64.272 133.333C64.272 134.656 65.3441 135.728 66.6667 135.728Z" fill="#4F279B"/>
<path d="M133.333 135.728C134.656 135.728 135.728 134.656 135.728 133.333C135.728 132.011 134.656 130.939 133.333 130.939C132.011 130.939 130.939 132.011 130.939 133.333C130.939 134.656 132.011 135.728 133.333 135.728Z" fill="#4F279B"/>
<path d="M200 135.728C201.323 135.728 202.395 134.656 202.395 133.333C202.395 132.011 201.323 130.939 200 130.939C198.677 130.939 197.605 132.011 197.605 133.333C197.605 134.656 198.677 135.728 200 135.728Z" fill="#4F279B"/>
<path d="M266.667 135.728C267.989 135.728 269.061 134.656 269.061 133.333C269.061 132.011 267.989 130.939 266.667 130.939C265.344 130.939 264.272 132.011 264.272 133.333C264.272 134.656 265.344 135.728 266.667 135.728Z" fill="#4F279B"/>
<path d="M333.333 135.728C334.656 135.728 335.728 134.656 335.728 133.333C335.728 132.011 334.656 130.939 333.333 130.939C332.011 130.939 330.939 132.011 330.939 133.333C330.939 134.656 332.011 135.728 333.333 135.728Z" fill="#4F279B"/>
<path d="M400 135.728C401.323 135.728 402.395 134.656 402.395 133.333C402.395 132.011 401.323 130.939 400 130.939C398.677 130.939 397.605 132.011 397.605 133.333C397.605 134.656 398.677 135.728 400 135.728Z" fill="#4F279B"/>
<path d="M466.667 135.728C467.989 135.728 469.061 134.656 469.061 133.333C469.061 132.011 467.989 130.939 466.667 130.939C465.344 130.939 464.272 132.011 464.272 133.333C464.272 134.656 465.344 135.728 466.667 135.728Z" fill="#4F279B"/>
<path d="M533.333 135.728C534.656 135.728 535.728 134.656 535.728 133.333C535.728 132.011 534.656 130.939 533.333 130.939C532.011 130.939 530.939 132.011 530.939 133.333C530.939 134.656 532.011 135.728 533.333 135.728Z" fill="#4F279B"/>
<path d="M600 135.728C601.323 135.728 602.395 134.656 602.395 133.333C602.395 132.011 601.323 130.939 600 130.939C598.677 130.939 597.605 132.011 597.605 133.333C597.605 134.656 598.677 135.728 600 135.728Z" fill="#4F279B"/>
<path d="M666.667 135.728C667.989 135.728 669.061 134.656 669.061 133.333C669.061 132.011 667.989 130.939 666.667 130.939C665.344 130.939 664.272 132.011 664.272 133.333C664.272 134.656 665.344 135.728 666.667 135.728Z" fill="#4F279B"/>
<path d="M733.333 135.728C734.656 135.728 735.728 134.656 735.728 133.333C735.728 132.011 734.656 130.939 733.333 130.939C732.011 130.939 730.939 132.011 730.939 133.333C730.939 134.656 732.011 135.728 733.333 135.728Z" fill="#4F279B"/>
<path d="M800 135.728C801.323 135.728 802.395 134.656 802.395 133.333C802.395 132.011 801.323 130.939 800 130.939C798.677 130.939 797.605 132.011 797.605 133.333C797.605 134.656 798.677 135.728 800 135.728Z" fill="#4F279B"/>
<path d="M2.24113e-05 202.395C1.3226 202.395 2.39476 201.323 2.39476 200C2.39476 198.677 1.3226 197.605 2.24113e-05 197.605C-1.32255 197.605 -2.39471 198.677 -2.39471 200C-2.39471 201.323 -1.32255 202.395 2.24113e-05 202.395Z" fill="#4F279B"/>
<path d="M66.6667 202.395C67.9893 202.395 69.0614 201.323 69.0614 200C69.0614 198.677 67.9893 197.605 66.6667 197.605C65.3441 197.605 64.272 198.677 64.272 200C64.272 201.323 65.3441 202.395 66.6667 202.395Z" fill="#4F279B"/>
<path d="M133.333 202.395C134.656 202.395 135.728 201.323 135.728 200C135.728 198.677 134.656 197.605 133.333 197.605C132.011 197.605 130.939 198.677 130.939 200C130.939 201.323 132.011 202.395 133.333 202.395Z" fill="#4F279B"/>
<path d="M200 202.395C201.323 202.395 202.395 201.323 202.395 200C202.395 198.677 201.323 197.605 200 197.605C198.677 197.605 197.605 198.677 197.605 200C197.605 201.323 198.677 202.395 200 202.395Z" fill="#4F279B"/>
<path d="M266.667 202.395C267.989 202.395 269.061 201.323 269.061 200C269.061 198.677 267.989 197.605 266.667 197.605C265.344 197.605 264.272 198.677 264.272 200C264.272 201.323 265.344 202.395 266.667 202.395Z" fill="#4F279B"/>
<path d="M333.333 202.395C334.656 202.395 335.728 201.323 335.728 200C335.728 198.677 334.656 197.605 333.333 197.605C332.011 197.605 330.939 198.677 330.939 200C330.939 201.323 332.011 202.395 333.333 202.395Z" fill="#4F279B"/>
<path d="M400 202.395C401.323 202.395 402.395 201.323 402.395 200C402.395 198.677 401.323 197.605 400 197.605C398.677 197.605 397.605 198.677 397.605 200C397.605 201.323 398.677 202.395 400 202.395Z" fill="#4F279B"/>
<path d="M466.667 202.395C467.989 202.395 469.061 201.323 469.061 200C469.061 198.677 467.989 197.605 466.667 197.605C465.344 197.605 464.272 198.677 464.272 200C464.272 201.323 465.344 202.395 466.667 202.395Z" fill="#4F279B"/>
<path d="M533.333 202.395C534.656 202.395 535.728 201.323 535.728 200C535.728 198.677 534.656 197.605 533.333 197.605C532.011 197.605 530.939 198.677 530.939 200C530.939 201.323 532.011 202.395 533.333 202.395Z" fill="#4F279B"/>
<path d="M600 202.395C601.323 202.395 602.395 201.323 602.395 200C602.395 198.677 601.323 197.605 600 197.605C598.677 197.605 597.605 198.677 597.605 200C597.605 201.323 598.677 202.395 600 202.395Z" fill="#4F279B"/>
<path d="M666.667 202.395C667.989 202.395 669.061 201.323 669.061 200C669.061 198.677 667.989 197.605 666.667 197.605C665.344 197.605 664.272 198.677 664.272 200C664.272 201.323 665.344 202.395 666.667 202.395Z" fill="#4F279B"/>
<path d="M733.333 202.395C734.656 202.395 735.728 201.323 735.728 200C735.728 198.677 734.656 197.605 733.333 197.605C732.011 197.605 730.939 198.677 730.939 200C730.939 201.323 732.011 202.395 733.333 202.395Z" fill="#4F279B"/>
<path d="M800 202.395C801.323 202.395 802.395 201.323 802.395 200C802.395 198.677 801.323 197.605 800 197.605C798.677 197.605 797.605 198.677 797.605 200C797.605 201.323 798.677 202.395 800 202.395Z" fill="#4F279B"/>
<path d="M2.24113e-05 269.061C1.3226 269.061 2.39476 267.989 2.39476 266.667C2.39476 265.344 1.3226 264.272 2.24113e-05 264.272C-1.32255 264.272 -2.39471 265.344 -2.39471 266.667C-2.39471 267.989 -1.32255 269.061 2.24113e-05 269.061Z" fill="#4F279B"/>
<path d="M66.6667 269.061C67.9893 269.061 69.0614 267.989 69.0614 266.667C69.0614 265.344 67.9893 264.272 66.6667 264.272C65.3441 264.272 64.272 265.344 64.272 266.667C64.272 267.989 65.3441 269.061 66.6667 269.061Z" fill="#4F279B"/>
<path d="M133.333 269.061C134.656 269.061 135.728 267.989 135.728 266.667C135.728 265.344 134.656 264.272 133.333 264.272C132.011 264.272 130.939 265.344 130.939 266.667C130.939 267.989 132.011 269.061 133.333 269.061Z" fill="#4F279B"/>
<path d="M200 269.061C201.323 269.061 202.395 267.989 202.395 266.667C202.395 265.344 201.323 264.272 200 264.272C198.677 264.272 197.605 265.344 197.605 266.667C197.605 267.989 198.677 269.061 200 269.061Z" fill="#4F279B"/>
<path d="M266.667 269.061C267.989 269.061 269.061 267.989 269.061 266.667C269.061 265.344 267.989 264.272 266.667 264.272C265.344 264.272 264.272 265.344 264.272 266.667C264.272 267.989 265.344 269.061 266.667 269.061Z" fill="#4F279B"/>
<path d="M333.333 269.061C334.656 269.061 335.728 267.989 335.728 266.667C335.728 265.344 334.656 264.272 333.333 264.272C332.011 264.272 330.939 265.344 330.939 266.667C330.939 267.989 332.011 269.061 333.333 269.061Z" fill="#4F279B"/>
<path d="M400 269.061C401.323 269.061 402.395 267.989 402.395 266.667C402.395 265.344 401.323 264.272 400 264.272C398.677 264.272 397.605 265.344 397.605 266.667C397.605 267.989 398.677 269.061 400 269.061Z" fill="#4F279B"/>
<path d="M466.667 269.061C467.989 269.061 469.061 267.989 469.061 266.667C469.061 265.344 467.989 264.272 466.667 264.272C465.344 264.272 464.272 265.344 464.272 266.667C464.272 267.989 465.344 269.061 466.667 269.061Z" fill="#4F279B"/>
<path d="M533.333 269.061C534.656 269.061 535.728 267.989 535.728 266.667C535.728 265.344 534.656 264.272 533.333 264.272C532.011 264.272 530.939 265.344 530.939 266.667C530.939 267.989 532.011 269.061 533.333 269.061Z" fill="#4F279B"/>
<path d="M600 269.061C601.323 269.061 602.395 267.989 602.395 266.667C602.395 265.344 601.323 264.272 600 264.272C598.677 264.272 597.605 265.344 597.605 266.667C597.605 267.989 598.677 269.061 600 269.061Z" fill="#4F279B"/>
<path d="M666.667 269.061C667.989 269.061 669.061 267.989 669.061 266.667C669.061 265.344 667.989 264.272 666.667 264.272C665.344 264.272 664.272 265.344 664.272 266.667C664.272 267.989 665.344 269.061 666.667 269.061Z" fill="#4F279B"/>
<path d="M733.333 269.061C734.656 269.061 735.728 267.989 735.728 266.667C735.728 265.344 734.656 264.272 733.333 264.272C732.011 264.272 730.939 265.344 730.939 266.667C730.939 267.989 732.011 269.061 733.333 269.061Z" fill="#4F279B"/>
<path d="M800 269.061C801.323 269.061 802.395 267.989 802.395 266.667C802.395 265.344 801.323 264.272 800 264.272C798.677 264.272 797.605 265.344 797.605 266.667C797.605 267.989 798.677 269.061 800 269.061Z" fill="#4F279B"/>
<path d="M2.24113e-05 335.728C1.3226 335.728 2.39476 334.656 2.39476 333.333C2.39476 332.011 1.3226 330.939 2.24113e-05 330.939C-1.32255 330.939 -2.39471 332.011 -2.39471 333.333C-2.39471 334.656 -1.32255 335.728 2.24113e-05 335.728Z" fill="#4F279B"/>
<path d="M66.6667 335.728C67.9893 335.728 69.0614 334.656 69.0614 333.333C69.0614 332.011 67.9893 330.939 66.6667 330.939C65.3441 330.939 64.272 332.011 64.272 333.333C64.272 334.656 65.3441 335.728 66.6667 335.728Z" fill="#4F279B"/>
<path d="M133.333 335.728C134.656 335.728 135.728 334.656 135.728 333.333C135.728 332.011 134.656 330.939 133.333 330.939C132.011 330.939 130.939 332.011 130.939 333.333C130.939 334.656 132.011 335.728 133.333 335.728Z" fill="#4F279B"/>
<path d="M200 335.728C201.323 335.728 202.395 334.656 202.395 333.333C202.395 332.011 201.323 330.939 200 330.939C198.677 330.939 197.605 332.011 197.605 333.333C197.605 334.656 198.677 335.728 200 335.728Z" fill="#4F279B"/>
<path d="M266.667 335.728C267.989 335.728 269.061 334.656 269.061 333.333C269.061 332.011 267.989 330.939 266.667 330.939C265.344 330.939 264.272 332.011 264.272 333.333C264.272 334.656 265.344 335.728 266.667 335.728Z" fill="#4F279B"/>
<path d="M333.333 335.728C334.656 335.728 335.728 334.656 335.728 333.333C335.728 332.011 334.656 330.939 333.333 330.939C332.011 330.939 330.939 332.011 330.939 333.333C330.939 334.656 332.011 335.728 333.333 335.728Z" fill="#4F279B"/>
<path d="M400 335.728C401.323 335.728 402.395 334.656 402.395 333.333C402.395 332.011 401.323 330.939 400 330.939C398.677 330.939 397.605 332.011 397.605 333.333C397.605 334.656 398.677 335.728 400 335.728Z" fill="#4F279B"/>
<path d="M466.667 335.728C467.989 335.728 469.061 334.656 469.061 333.333C469.061 332.011 467.989 330.939 466.667 330.939C465.344 330.939 464.272 332.011 464.272 333.333C464.272 334.656 465.344 335.728 466.667 335.728Z" fill="#4F279B"/>
<path d="M533.333 335.728C534.656 335.728 535.728 334.656 535.728 333.333C535.728 332.011 534.656 330.939 533.333 330.939C532.011 330.939 530.939 332.011 530.939 333.333C530.939 334.656 532.011 335.728 533.333 335.728Z" fill="#4F279B"/>
<path d="M600 335.728C601.323 335.728 602.395 334.656 602.395 333.333C602.395 332.011 601.323 330.939 600 330.939C598.677 330.939 597.605 332.011 597.605 333.333C597.605 334.656 598.677 335.728 600 335.728Z" fill="#4F279B"/>
<path d="M666.667 335.728C667.989 335.728 669.061 334.656 669.061 333.333C669.061 332.011 667.989 330.939 666.667 330.939C665.344 330.939 664.272 332.011 664.272 333.333C664.272 334.656 665.344 335.728 666.667 335.728Z" fill="#4F279B"/>
<path d="M733.333 335.728C734.656 335.728 735.728 334.656 735.728 333.333C735.728 332.011 734.656 330.939 733.333 330.939C732.011 330.939 730.939 332.011 730.939 333.333C730.939 334.656 732.011 335.728 733.333 335.728Z" fill="#4F279B"/>
<path d="M800 335.728C801.323 335.728 802.395 334.656 802.395 333.333C802.395 332.011 801.323 330.939 800 330.939C798.677 330.939 797.605 332.011 797.605 333.333C797.605 334.656 798.677 335.728 800 335.728Z" fill="#4F279B"/>
<path d="M2.24113e-05 402.395C1.3226 402.395 2.39476 401.323 2.39476 400C2.39476 398.677 1.3226 397.605 2.24113e-05 397.605C-1.32255 397.605 -2.39471 398.677 -2.39471 400C-2.39471 401.323 -1.32255 402.395 2.24113e-05 402.395Z" fill="#4F279B"/>
<path d="M66.6667 402.395C67.9893 402.395 69.0614 401.323 69.0614 400C69.0614 398.677 67.9893 397.605 66.6667 397.605C65.3441 397.605 64.272 398.677 64.272 400C64.272 401.323 65.3441 402.395 66.6667 402.395Z" fill="#4F279B"/>
<path d="M133.333 402.395C134.656 402.395 135.728 401.323 135.728 400C135.728 398.677 134.656 397.605 133.333 397.605C132.011 397.605 130.939 398.677 130.939 400C130.939 401.323 132.011 402.395 133.333 402.395Z" fill="#4F279B"/>
<path d="M200 402.395C201.323 402.395 202.395 401.323 202.395 400C202.395 398.677 201.323 397.605 200 397.605C198.677 397.605 197.605 398.677 197.605 400C197.605 401.323 198.677 402.395 200 402.395Z" fill="#4F279B"/>
<path d="M266.667 402.395C267.989 402.395 269.061 401.323 269.061 400C269.061 398.677 267.989 397.605 266.667 397.605C265.344 397.605 264.272 398.677 264.272 400C264.272 401.323 265.344 402.395 266.667 402.395Z" fill="#4F279B"/>
<path d="M333.333 402.395C334.656 402.395 335.728 401.323 335.728 400C335.728 398.677 334.656 397.605 333.333 397.605C332.011 397.605 330.939 398.677 330.939 400C330.939 401.323 332.011 402.395 333.333 402.395Z" fill="#4F279B"/>
<path d="M400 402.395C401.323 402.395 402.395 401.323 402.395 400C402.395 398.677 401.323 397.605 400 397.605C398.677 397.605 397.605 398.677 397.605 400C397.605 401.323 398.677 402.395 400 402.395Z" fill="#4F279B"/>
<path d="M466.667 402.395C467.989 402.395 469.061 401.323 469.061 400C469.061 398.677 467.989 397.605 466.667 397.605C465.344 397.605 464.272 398.677 464.272 400C464.272 401.323 465.344 402.395 466.667 402.395Z" fill="#4F279B"/>
<path d="M533.333 402.395C534.656 402.395 535.728 401.323 535.728 400C535.728 398.677 534.656 397.605 533.333 397.605C532.011 397.605 530.939 398.677 530.939 400C530.939 401.323 532.011 402.395 533.333 402.395Z" fill="#4F279B"/>
<path d="M600 402.395C601.323 402.395 602.395 401.323 602.395 400C602.395 398.677 601.323 397.605 600 397.605C598.677 397.605 597.605 398.677 597.605 400C597.605 401.323 598.677 402.395 600 402.395Z" fill="#4F279B"/>
<path d="M666.667 402.395C667.989 402.395 669.061 401.323 669.061 400C669.061 398.677 667.989 397.605 666.667 397.605C665.344 397.605 664.272 398.677 664.272 400C664.272 401.323 665.344 402.395 666.667 402.395Z" fill="#4F279B"/>
<path d="M733.333 402.395C734.656 402.395 735.728 401.323 735.728 400C735.728 398.677 734.656 397.605 733.333 397.605C732.011 397.605 730.939 398.677 730.939 400C730.939 401.323 732.011 402.395 733.333 402.395Z" fill="#4F279B"/>
<path d="M800 402.395C801.323 402.395 802.395 401.323 802.395 400C802.395 398.677 801.323 397.605 800 397.605C798.677 397.605 797.605 398.677 797.605 400C797.605 401.323 798.677 402.395 800 402.395Z" fill="#4F279B"/>
<path d="M2.24113e-05 469.061C1.3226 469.061 2.39476 467.989 2.39476 466.667C2.39476 465.344 1.3226 464.272 2.24113e-05 464.272C-1.32255 464.272 -2.39471 465.344 -2.39471 466.667C-2.39471 467.989 -1.32255 469.061 2.24113e-05 469.061Z" fill="#4F279B"/>
<path d="M66.6667 469.061C67.9893 469.061 69.0614 467.989 69.0614 466.667C69.0614 465.344 67.9893 464.272 66.6667 464.272C65.3441 464.272 64.272 465.344 64.272 466.667C64.272 467.989 65.3441 469.061 66.6667 469.061Z" fill="#4F279B"/>
<path d="M133.333 469.061C134.656 469.061 135.728 467.989 135.728 466.667C135.728 465.344 134.656 464.272 133.333 464.272C132.011 464.272 130.939 465.344 130.939 466.667C130.939 467.989 132.011 469.061 133.333 469.061Z" fill="#4F279B"/>
<path d="M200 469.061C201.323 469.061 202.395 467.989 202.395 466.667C202.395 465.344 201.323 464.272 200 464.272C198.677 464.272 197.605 465.344 197.605 466.667C197.605 467.989 198.677 469.061 200 469.061Z" fill="#4F279B"/>
<path d="M266.667 469.061C267.989 469.061 269.061 467.989 269.061 466.667C269.061 465.344 267.989 464.272 266.667 464.272C265.344 464.272 264.272 465.344 264.272 466.667C264.272 467.989 265.344 469.061 266.667 469.061Z" fill="#4F279B"/>
<path d="M333.333 469.061C334.656 469.061 335.728 467.989 335.728 466.667C335.728 465.344 334.656 464.272 333.333 464.272C332.011 464.272 330.939 465.344 330.939 466.667C330.939 467.989 332.011 469.061 333.333 469.061Z" fill="#4F279B"/>
<path d="M400 469.061C401.323 469.061 402.395 467.989 402.395 466.667C402.395 465.344 401.323 464.272 400 464.272C398.677 464.272 397.605 465.344 397.605 466.667C397.605 467.989 398.677 469.061 400 469.061Z" fill="#4F279B"/>
<path d="M466.667 469.061C467.989 469.061 469.061 467.989 469.061 466.667C469.061 465.344 467.989 464.272 466.667 464.272C465.344 464.272 464.272 465.344 464.272 466.667C464.272 467.989 465.344 469.061 466.667 469.061Z" fill="#4F279B"/>
<path d="M533.333 469.061C534.656 469.061 535.728 467.989 535.728 466.667C535.728 465.344 534.656 464.272 533.333 464.272C532.011 464.272 530.939 465.344 530.939 466.667C530.939 467.989 532.011 469.061 533.333 469.061Z" fill="#4F279B"/>
<path d="M600 469.061C601.323 469.061 602.395 467.989 602.395 466.667C602.395 465.344 601.323 464.272 600 464.272C598.677 464.272 597.605 465.344 597.605 466.667C597.605 467.989 598.677 469.061 600 469.061Z" fill="#4F279B"/>
<path d="M666.667 469.061C667.989 469.061 669.061 467.989 669.061 466.667C669.061 465.344 667.989 464.272 666.667 464.272C665.344 464.272 664.272 465.344 664.272 466.667C664.272 467.989 665.344 469.061 666.667 469.061Z" fill="#4F279B"/>
<path d="M733.333 469.061C734.656 469.061 735.728 467.989 735.728 466.667C735.728 465.344 734.656 464.272 733.333 464.272C732.011 464.272 730.939 465.344 730.939 466.667C730.939 467.989 732.011 469.061 733.333 469.061Z" fill="#4F279B"/>
<path d="M800 469.061C801.323 469.061 802.395 467.989 802.395 466.667C802.395 465.344 801.323 464.272 800 464.272C798.677 464.272 797.605 465.344 797.605 466.667C797.605 467.989 798.677 469.061 800 469.061Z" fill="#4F279B"/>
<path d="M2.24113e-05 535.728C1.3226 535.728 2.39476 534.656 2.39476 533.333C2.39476 532.011 1.3226 530.939 2.24113e-05 530.939C-1.32255 530.939 -2.39471 532.011 -2.39471 533.333C-2.39471 534.656 -1.32255 535.728 2.24113e-05 535.728Z" fill="#4F279B"/>
<path d="M66.6667 535.728C67.9893 535.728 69.0614 534.656 69.0614 533.333C69.0614 532.011 67.9893 530.939 66.6667 530.939C65.3441 530.939 64.272 532.011 64.272 533.333C64.272 534.656 65.3441 535.728 66.6667 535.728Z" fill="#4F279B"/>
<path d="M133.333 535.728C134.656 535.728 135.728 534.656 135.728 533.333C135.728 532.011 134.656 530.939 133.333 530.939C132.011 530.939 130.939 532.011 130.939 533.333C130.939 534.656 132.011 535.728 133.333 535.728Z" fill="#4F279B"/>
<path d="M200 535.728C201.323 535.728 202.395 534.656 202.395 533.333C202.395 532.011 201.323 530.939 200 530.939C198.677 530.939 197.605 532.011 197.605 533.333C197.605 534.656 198.677 535.728 200 535.728Z" fill="#4F279B"/>
<path d="M266.667 535.728C267.989 535.728 269.061 534.656 269.061 533.333C269.061 532.011 267.989 530.939 266.667 530.939C265.344 530.939 264.272 532.011 264.272 533.333C264.272 534.656 265.344 535.728 266.667 535.728Z" fill="#4F279B"/>
<path d="M333.333 535.728C334.656 535.728 335.728 534.656 335.728 533.333C335.728 532.011 334.656 530.939 333.333 530.939C332.011 530.939 330.939 532.011 330.939 533.333C330.939 534.656 332.011 535.728 333.333 535.728Z" fill="#4F279B"/>
<path d="M400 535.728C401.323 535.728 402.395 534.656 402.395 533.333C402.395 532.011 401.323 530.939 400 530.939C398.677 530.939 397.605 532.011 397.605 533.333C397.605 534.656 398.677 535.728 400 535.728Z" fill="#4F279B"/>
<path d="M466.667 535.728C467.989 535.728 469.061 534.656 469.061 533.333C469.061 532.011 467.989 530.939 466.667 530.939C465.344 530.939 464.272 532.011 464.272 533.333C464.272 534.656 465.344 535.728 466.667 535.728Z" fill="#4F279B"/>
<path d="M533.333 535.728C534.656 535.728 535.728 534.656 535.728 533.333C535.728 532.011 534.656 530.939 533.333 530.939C532.011 530.939 530.939 532.011 530.939 533.333C530.939 534.656 532.011 535.728 533.333 535.728Z" fill="#4F279B"/>
<path d="M600 535.728C601.323 535.728 602.395 534.656 602.395 533.333C602.395 532.011 601.323 530.939 600 530.939C598.677 530.939 597.605 532.011 597.605 533.333C597.605 534.656 598.677 535.728 600 535.728Z" fill="#4F279B"/>
<path d="M666.667 535.728C667.989 535.728 669.061 534.656 669.061 533.333C669.061 532.011 667.989 530.939 666.667 530.939C665.344 530.939 664.272 532.011 664.272 533.333C664.272 534.656 665.344 535.728 666.667 535.728Z" fill="#4F279B"/>
<path d="M733.333 535.728C734.656 535.728 735.728 534.656 735.728 533.333C735.728 532.011 734.656 530.939 733.333 530.939C732.011 530.939 730.939 532.011 730.939 533.333C730.939 534.656 732.011 535.728 733.333 535.728Z" fill="#4F279B"/>
<path d="M800 535.728C801.323 535.728 802.395 534.656 802.395 533.333C802.395 532.011 801.323 530.939 800 530.939C798.677 530.939 797.605 532.011 797.605 533.333C797.605 534.656 798.677 535.728 800 535.728Z" fill="#4F279B"/>
<path d="M2.24113e-05 602.395C1.3226 602.395 2.39476 601.323 2.39476 600C2.39476 598.677 1.3226 597.605 2.24113e-05 597.605C-1.32255 597.605 -2.39471 598.677 -2.39471 600C-2.39471 601.323 -1.32255 602.395 2.24113e-05 602.395Z" fill="#4F279B"/>
<path d="M66.6667 602.395C67.9893 602.395 69.0614 601.323 69.0614 600C69.0614 598.677 67.9893 597.605 66.6667 597.605C65.3441 597.605 64.272 598.677 64.272 600C64.272 601.323 65.3441 602.395 66.6667 602.395Z" fill="#4F279B"/>
<path d="M133.333 602.395C134.656 602.395 135.728 601.323 135.728 600C135.728 598.677 134.656 597.605 133.333 597.605C132.011 597.605 130.939 598.677 130.939 600C130.939 601.323 132.011 602.395 133.333 602.395Z" fill="#4F279B"/>
<path d="M200 602.395C201.323 602.395 202.395 601.323 202.395 600C202.395 598.677 201.323 597.605 200 597.605C198.677 597.605 197.605 598.677 197.605 600C197.605 601.323 198.677 602.395 200 602.395Z" fill="#4F279B"/>
<path d="M266.667 602.395C267.989 602.395 269.061 601.323 269.061 600C269.061 598.677 267.989 597.605 266.667 597.605C265.344 597.605 264.272 598.677 264.272 600C264.272 601.323 265.344 602.395 266.667 602.395Z" fill="#4F279B"/>
<path d="M333.333 602.395C334.656 602.395 335.728 601.323 335.728 600C335.728 598.677 334.656 597.605 333.333 597.605C332.011 597.605 330.939 598.677 330.939 600C330.939 601.323 332.011 602.395 333.333 602.395Z" fill="#4F279B"/>
<path d="M400 602.395C401.323 602.395 402.395 601.323 402.395 600C402.395 598.677 401.323 597.605 400 597.605C398.677 597.605 397.605 598.677 397.605 600C397.605 601.323 398.677 602.395 400 602.395Z" fill="#4F279B"/>
<path d="M466.667 602.395C467.989 602.395 469.061 601.323 469.061 600C469.061 598.677 467.989 597.605 466.667 597.605C465.344 597.605 464.272 598.677 464.272 600C464.272 601.323 465.344 602.395 466.667 602.395Z" fill="#4F279B"/>
<path d="M533.333 602.395C534.656 602.395 535.728 601.323 535.728 600C535.728 598.677 534.656 597.605 533.333 597.605C532.011 597.605 530.939 598.677 530.939 600C530.939 601.323 532.011 602.395 533.333 602.395Z" fill="#4F279B"/>
<path d="M600 602.395C601.323 602.395 602.395 601.323 602.395 600C602.395 598.677 601.323 597.605 600 597.605C598.677 597.605 597.605 598.677 597.605 600C597.605 601.323 598.677 602.395 600 602.395Z" fill="#4F279B"/>
<path d="M666.667 602.395C667.989 602.395 669.061 601.323 669.061 600C669.061 598.677 667.989 597.605 666.667 597.605C665.344 597.605 664.272 598.677 664.272 600C664.272 601.323 665.344 602.395 666.667 602.395Z" fill="#4F279B"/>
<path d="M733.333 602.395C734.656 602.395 735.728 601.323 735.728 600C735.728 598.677 734.656 597.605 733.333 597.605C732.011 597.605 730.939 598.677 730.939 600C730.939 601.323 732.011 602.395 733.333 602.395Z" fill="#4F279B"/>
<path d="M800 602.395C801.323 602.395 802.395 601.323 802.395 600C802.395 598.677 801.323 597.605 800 597.605C798.677 597.605 797.605 598.677 797.605 600C797.605 601.323 798.677 602.395 800 602.395Z" fill="#4F279B"/>
<path d="M2.24113e-05 669.061C1.3226 669.061 2.39476 667.989 2.39476 666.667C2.39476 665.344 1.3226 664.272 2.24113e-05 664.272C-1.32255 664.272 -2.39471 665.344 -2.39471 666.667C-2.39471 667.989 -1.32255 669.061 2.24113e-05 669.061Z" fill="#4F279B"/>
<path d="M66.6667 669.061C67.9893 669.061 69.0614 667.989 69.0614 666.667C69.0614 665.344 67.9893 664.272 66.6667 664.272C65.3441 664.272 64.272 665.344 64.272 666.667C64.272 667.989 65.3441 669.061 66.6667 669.061Z" fill="#4F279B"/>
<path d="M133.333 669.061C134.656 669.061 135.728 667.989 135.728 666.667C135.728 665.344 134.656 664.272 133.333 664.272C132.011 664.272 130.939 665.344 130.939 666.667C130.939 667.989 132.011 669.061 133.333 669.061Z" fill="#4F279B"/>
<path d="M200 669.061C201.323 669.061 202.395 667.989 202.395 666.667C202.395 665.344 201.323 664.272 200 664.272C198.677 664.272 197.605 665.344 197.605 666.667C197.605 667.989 198.677 669.061 200 669.061Z" fill="#4F279B"/>
<path d="M266.667 669.061C267.989 669.061 269.061 667.989 269.061 666.667C269.061 665.344 267.989 664.272 266.667 664.272C265.344 664.272 264.272 665.344 264.272 666.667C264.272 667.989 265.344 669.061 266.667 669.061Z" fill="#4F279B"/>
<path d="M333.333 669.061C334.656 669.061 335.728 667.989 335.728 666.667C335.728 665.344 334.656 664.272 333.333 664.272C332.011 664.272 330.939 665.344 330.939 666.667C330.939 667.989 332.011 669.061 333.333 669.061Z" fill="#4F279B"/>
<path d="M400 669.061C401.323 669.061 402.395 667.989 402.395 666.667C402.395 665.344 401.323 664.272 400 664.272C398.677 664.272 397.605 665.344 397.605 666.667C397.605 667.989 398.677 669.061 400 669.061Z" fill="#4F279B"/>
<path d="M466.667 669.061C467.989 669.061 469.061 667.989 469.061 666.667C469.061 665.344 467.989 664.272 466.667 664.272C465.344 664.272 464.272 665.344 464.272 666.667C464.272 667.989 465.344 669.061 466.667 669.061Z" fill="#4F279B"/>
<path d="M533.333 669.061C534.656 669.061 535.728 667.989 535.728 666.667C535.728 665.344 534.656 664.272 533.333 664.272C532.011 664.272 530.939 665.344 530.939 666.667C530.939 667.989 532.011 669.061 533.333 669.061Z" fill="#4F279B"/>
<path d="M600 669.061C601.323 669.061 602.395 667.989 602.395 666.667C602.395 665.344 601.323 664.272 600 664.272C598.677 664.272 597.605 665.344 597.605 666.667C597.605 667.989 598.677 669.061 600 669.061Z" fill="#4F279B"/>
<path d="M666.667 669.061C667.989 669.061 669.061 667.989 669.061 666.667C669.061 665.344 667.989 664.272 666.667 664.272C665.344 664.272 664.272 665.344 664.272 666.667C664.272 667.989 665.344 669.061 666.667 669.061Z" fill="#4F279B"/>
<path d="M733.333 669.061C734.656 669.061 735.728 667.989 735.728 666.667C735.728 665.344 734.656 664.272 733.333 664.272C732.011 664.272 730.939 665.344 730.939 666.667C730.939 667.989 732.011 669.061 733.333 669.061Z" fill="#4F279B"/>
<path d="M800 669.061C801.323 669.061 802.395 667.989 802.395 666.667C802.395 665.344 801.323 664.272 800 664.272C798.677 664.272 797.605 665.344 797.605 666.667C797.605 667.989 798.677 669.061 800 669.061Z" fill="#4F279B"/>
<path d="M2.24113e-05 735.728C1.3226 735.728 2.39476 734.656 2.39476 733.333C2.39476 732.011 1.3226 730.939 2.24113e-05 730.939C-1.32255 730.939 -2.39471 732.011 -2.39471 733.333C-2.39471 734.656 -1.32255 735.728 2.24113e-05 735.728Z" fill="#4F279B"/>
<path d="M66.6667 735.728C67.9893 735.728 69.0614 734.656 69.0614 733.333C69.0614 732.011 67.9893 730.939 66.6667 730.939C65.3441 730.939 64.272 732.011 64.272 733.333C64.272 734.656 65.3441 735.728 66.6667 735.728Z" fill="#4F279B"/>
<path d="M133.333 735.728C134.656 735.728 135.728 734.656 135.728 733.333C135.728 732.011 134.656 730.939 133.333 730.939C132.011 730.939 130.939 732.011 130.939 733.333C130.939 734.656 132.011 735.728 133.333 735.728Z" fill="#4F279B"/>
<path d="M200 735.728C201.323 735.728 202.395 734.656 202.395 733.333C202.395 732.011 201.323 730.939 200 730.939C198.677 730.939 197.605 732.011 197.605 733.333C197.605 734.656 198.677 735.728 200 735.728Z" fill="#4F279B"/>
<path d="M266.667 735.728C267.989 735.728 269.061 734.656 269.061 733.333C269.061 732.011 267.989 730.939 266.667 730.939C265.344 730.939 264.272 732.011 264.272 733.333C264.272 734.656 265.344 735.728 266.667 735.728Z" fill="#4F279B"/>
<path d="M333.333 735.728C334.656 735.728 335.728 734.656 335.728 733.333C335.728 732.011 334.656 730.939 333.333 730.939C332.011 730.939 330.939 732.011 330.939 733.333C330.939 734.656 332.011 735.728 333.333 735.728Z" fill="#4F279B"/>
<path d="M400 735.728C401.323 735.728 402.395 734.656 402.395 733.333C402.395 732.011 401.323 730.939 400 730.939C398.677 730.939 397.605 732.011 397.605 733.333C397.605 734.656 398.677 735.728 400 735.728Z" fill="#4F279B"/>
<path d="M466.667 735.728C467.989 735.728 469.061 734.656 469.061 733.333C469.061 732.011 467.989 730.939 466.667 730.939C465.344 730.939 464.272 732.011 464.272 733.333C464.272 734.656 465.344 735.728 466.667 735.728Z" fill="#4F279B"/>
<path d="M533.333 735.728C534.656 735.728 535.728 734.656 535.728 733.333C535.728 732.011 534.656 730.939 533.333 730.939C532.011 730.939 530.939 732.011 530.939 733.333C530.939 734.656 532.011 735.728 533.333 735.728Z" fill="#4F279B"/>
<path d="M600 735.728C601.323 735.728 602.395 734.656 602.395 733.333C602.395 732.011 601.323 730.939 600 730.939C598.677 730.939 597.605 732.011 597.605 733.333C597.605 734.656 598.677 735.728 600 735.728Z" fill="#4F279B"/>
<path d="M666.667 735.728C667.989 735.728 669.061 734.656 669.061 733.333C669.061 732.011 667.989 730.939 666.667 730.939C665.344 730.939 664.272 732.011 664.272 733.333C664.272 734.656 665.344 735.728 666.667 735.728Z" fill="#4F279B"/>
<path d="M733.333 735.728C734.656 735.728 735.728 734.656 735.728 733.333C735.728 732.011 734.656 730.939 733.333 730.939C732.011 730.939 730.939 732.011 730.939 733.333C730.939 734.656 732.011 735.728 733.333 735.728Z" fill="#4F279B"/>
<path d="M800 735.728C801.323 735.728 802.395 734.656 802.395 733.333C802.395 732.011 801.323 730.939 800 730.939C798.677 730.939 797.605 732.011 797.605 733.333C797.605 734.656 798.677 735.728 800 735.728Z" fill="#4F279B"/>
<path d="M2.24113e-05 802.395C1.3226 802.395 2.39476 801.323 2.39476 800C2.39476 798.677 1.3226 797.605 2.24113e-05 797.605C-1.32255 797.605 -2.39471 798.677 -2.39471 800C-2.39471 801.323 -1.32255 802.395 2.24113e-05 802.395Z" fill="#4F279B"/>
<path d="M66.6667 802.395C67.9893 802.395 69.0614 801.323 69.0614 800C69.0614 798.677 67.9893 797.605 66.6667 797.605C65.3441 797.605 64.272 798.677 64.272 800C64.272 801.323 65.3441 802.395 66.6667 802.395Z" fill="#4F279B"/>
<path d="M133.333 802.395C134.656 802.395 135.728 801.323 135.728 800C135.728 798.677 134.656 797.605 133.333 797.605C132.011 797.605 130.939 798.677 130.939 800C130.939 801.323 132.011 802.395 133.333 802.395Z" fill="#4F279B"/>
<path d="M200 802.395C201.323 802.395 202.395 801.323 202.395 800C202.395 798.677 201.323 797.605 200 797.605C198.677 797.605 197.605 798.677 197.605 800C197.605 801.323 198.677 802.395 200 802.395Z" fill="#4F279B"/>
<path d="M266.667 802.395C267.989 802.395 269.061 801.323 269.061 800C269.061 798.677 267.989 797.605 266.667 797.605C265.344 797.605 264.272 798.677 264.272 800C264.272 801.323 265.344 802.395 266.667 802.395Z" fill="#4F279B"/>
<path d="M333.333 802.395C334.656 802.395 335.728 801.323 335.728 800C335.728 798.677 334.656 797.605 333.333 797.605C332.011 797.605 330.939 798.677 330.939 800C330.939 801.323 332.011 802.395 333.333 802.395Z" fill="#4F279B"/>
<path d="M400 802.395C401.323 802.395 402.395 801.323 402.395 800C402.395 798.677 401.323 797.605 400 797.605C398.677 797.605 397.605 798.677 397.605 800C397.605 801.323 398.677 802.395 400 802.395Z" fill="#4F279B"/>
<path d="M466.667 802.395C467.989 802.395 469.061 801.323 469.061 800C469.061 798.677 467.989 797.605 466.667 797.605C465.344 797.605 464.272 798.677 464.272 800C464.272 801.323 465.344 802.395 466.667 802.395Z" fill="#4F279B"/>
<path d="M533.333 802.395C534.656 802.395 535.728 801.323 535.728 800C535.728 798.677 534.656 797.605 533.333 797.605C532.011 797.605 530.939 798.677 530.939 800C530.939 801.323 532.011 802.395 533.333 802.395Z" fill="#4F279B"/>
<path d="M600 802.395C601.323 802.395 602.395 801.323 602.395 800C602.395 798.677 601.323 797.605 600 797.605C598.677 797.605 597.605 798.677 597.605 800C597.605 801.323 598.677 802.395 600 802.395Z" fill="#4F279B"/>
<path d="M666.667 802.395C667.989 802.395 669.061 801.323 669.061 800C669.061 798.677 667.989 797.605 666.667 797.605C665.344 797.605 664.272 798.677 664.272 800C664.272 801.323 665.344 802.395 666.667 802.395Z" fill="#4F279B"/>
<path d="M733.333 802.395C734.656 802.395 735.728 801.323 735.728 800C735.728 798.677 734.656 797.605 733.333 797.605C732.011 797.605 730.939 798.677 730.939 800C730.939 801.323 732.011 802.395 733.333 802.395Z" fill="#4F279B"/>
<path d="M800 802.395C801.323 802.395 802.395 801.323 802.395 800C802.395 798.677 801.323 797.605 800 797.605C798.677 797.605 797.605 798.677 797.605 800C797.605 801.323 798.677 802.395 800 802.395Z" fill="#4F279B"/>
</g>
<defs>
<clipPath id="clip0_28_337">
<rect width="800" height="800" fill="white"/>
</clipPath>
</defs>
</svg>
