<?xml version="1.0" standalone="no"?>
<!DOCTYPE svg PUBLIC "-//W3C//DTD SVG 20010904//EN"
 "http://www.w3.org/TR/2001/REC-SVG-20010904/DTD/svg10.dtd">
<svg version="1.0" xmlns="http://www.w3.org/2000/svg"
 width="542.000000pt" height="544.000000pt" viewBox="0 0 542.000000 544.000000"
 preserveAspectRatio="xMidYMid meet">
<g transform="translate(0.000000,544.000000) scale(0.100000,-0.100000)"
fill="#000000" stroke="none">
<path d="M70 4650 l0 -620 620 0 620 0 0 620 0 620 -620 0 -620 0 0 -620z
m1060 0 l0 -440 -440 0 -440 0 0 440 0 440 440 0 440 0 0 -440z"/>
<path d="M430 4650 l0 -260 260 0 260 0 0 260 0 260 -260 0 -260 0 0 -260z"/>
<path d="M1480 5000 l0 -270 90 0 90 0 0 -85 0 -84 88 -3 87 -3 0 -260 0 -260
-82 -3 -83 -3 0 181 0 180 -95 0 -95 0 0 -360 0 -360 180 0 180 0 0 -85 0 -85
85 0 85 0 0 -525 0 -525 -85 0 -85 0 0 -90 0 -90 -175 0 -175 0 0 260 0 260
85 0 85 0 0 -85 0 -85 90 0 90 0 0 90 0 90 -85 0 -85 0 0 85 0 85 -95 0 -95 0
0 -85 0 -85 -175 0 -175 0 0 -90 0 -90 -90 0 -90 0 0 -90 0 -90 90 0 90 0 0
-90 0 -90 175 0 175 0 0 -85 0 -85 -260 0 -260 0 0 90 0 90 -90 0 -90 0 0 90
0 90 -85 0 -85 0 0 85 0 85 85 0 85 0 0 85 0 85 90 0 90 0 0 265 0 265 175 0
175 0 0 -85 0 -85 -90 0 -90 0 0 -90 0 -90 90 0 89 0 3 88 3 87 88 3 87 3 0
89 0 90 -90 0 -90 0 0 85 0 85 -85 0 -85 0 0 85 0 85 85 0 85 0 0 95 0 95 -90
0 -90 0 0 -90 0 -90 -85 0 -85 0 0 90 0 90 -265 0 -265 0 0 -95 0 -95 85 0 85
0 0 -85 0 -85 90 0 90 0 0 85 0 85 85 0 85 0 0 -170 0 -170 -85 0 -85 0 0 -90
0 -90 -90 0 -90 0 0 -90 0 -90 -85 0 -85 0 0 -90 0 -90 85 0 85 0 0 -85 0 -85
-265 0 -265 0 0 -90 0 -90 180 0 180 0 0 -85 0 -85 -180 0 -180 0 0 -355 0
-355 90 0 90 0 0 88 c1 48 2 166 3 262 l2 175 88 3 87 3 0 84 0 85 85 0 85 0
0 -85 0 -84 88 -3 87 -3 3 -82 3 -83 -91 0 -90 0 0 -95 0 -95 90 0 90 0 0 -85
0 -85 350 0 350 0 0 -90 0 -90 90 0 90 0 0 -175 0 -175 -90 0 -90 0 0 -265 0
-265 90 0 90 0 0 -90 0 -90 90 0 90 0 0 -85 0 -85 175 0 175 0 0 85 c1 47 1
128 1 180 0 52 0 133 -1 180 l0 85 -85 0 -85 0 0 90 0 90 -175 0 -175 0 0 85
0 85 175 0 175 0 0 90 0 90 85 0 85 0 0 -180 0 -180 91 0 91 0 -2 -87 c-1 -49
-2 -127 -1 -175 l1 -88 85 0 85 0 0 -175 0 -175 90 0 90 0 1 88 c0 48 0 126
-1 174 l-1 88 175 0 176 0 0 -85 0 -85 -90 0 -90 0 0 -90 0 -90 95 0 95 0 0
85 0 85 265 0 265 0 0 90 0 90 85 0 85 0 0 -90 0 -90 90 0 90 0 0 90 0 90 176
0 175 0 -1 -88 c-1 -48 -1 -126 -1 -174 l1 -88 90 0 90 0 0 85 0 85 85 0 85 0
0 -85 0 -85 90 0 90 0 0 85 0 85 90 0 90 0 0 180 0 180 -90 0 -90 0 0 85 0 85
175 0 175 0 0 90 0 90 -87 0 c-49 1 -167 2 -263 3 l-175 2 -3 88 -3 87 -84 0
-85 0 0 85 0 85 85 0 85 0 0 90 0 90 85 0 85 0 0 -90 0 -90 180 0 180 0 0 90
0 90 -85 0 -85 0 0 85 0 85 85 0 85 0 0 95 0 95 -175 0 -175 0 0 85 0 85 175
0 175 0 0 180 0 180 -85 0 -85 0 0 85 0 85 -95 0 -95 0 0 -85 0 -85 -85 0 -85
0 0 85 0 85 -175 0 -175 0 0 85 0 85 175 0 175 0 0 90 0 90 85 0 85 0 0 -90 0
-90 180 0 180 0 0 180 0 180 -85 0 -85 0 0 90 0 90 -95 0 -95 0 0 -90 0 -90
-85 0 -84 0 -3 -87 -3 -88 -172 -2 -173 -3 0 265 0 265 85 0 85 0 0 -90 0 -90
90 0 90 0 1 93 c0 50 0 129 -1 175 l-1 82 175 0 176 0 0 -85 0 -85 90 0 90 0
0 180 0 180 -265 0 -265 0 0 -90 0 -90 -175 0 -175 0 0 90 0 90 -530 0 -530 0
0 -90 0 -90 -85 0 -85 0 0 265 0 265 -90 0 -90 0 0 90 0 90 -265 0 -265 0 0
-90 0 -90 -90 0 -90 0 0 -90 0 -90 90 0 90 0 0 85 0 85 85 0 85 0 0 -85 0 -85
90 0 90 0 0 85 0 85 85 0 85 0 0 -265 0 -265 90 0 90 0 0 -85 0 -85 -172 3
-173 2 -3 88 -3 87 -89 0 -90 0 0 -90 0 -90 -85 0 -85 0 0 180 0 180 -265 0
-265 0 0 85 0 85 90 0 90 0 0 265 0 265 85 0 85 0 0 90 0 90 -85 0 -85 0 0 85
0 85 175 0 175 0 -1 -171 c0 -95 2 -174 4 -176 5 -5 339 -5 344 0 5 5 5 339 0
344 -2 2 -81 4 -176 4 l-171 -1 0 180 0 180 -90 0 -90 0 0 -90 0 -90 -85 0
-85 0 0 90 0 90 -90 0 -90 0 -1 -92 c0 -51 -1 -131 -2 -178 l-2 -85 -82 -3
-83 -3 0 181 0 180 -95 0 -95 0 0 -270z m710 -1415 l0 -85 -85 0 -85 0 0 85 0
85 85 0 85 0 0 -85z m1588 3 l-3 -83 -87 -3 -88 -3 0 -89 0 -90 90 0 90 0 -3
-172 -2 -173 -172 -2 -173 -3 0 90 0 90 -90 0 -90 0 0 90 0 90 -85 0 -85 0 0
85 0 85 85 0 85 0 0 85 0 85 265 0 266 0 -3 -82z m530 0 l-3 -83 -172 -2 -173
-3 0 85 0 85 175 0 176 0 -3 -82z m-1940 -180 l3 -88 84 0 85 0 0 -85 0 -85
-172 2 -173 3 -3 160 c-1 88 0 166 3 173 3 9 27 12 87 10 l83 -3 3 -87z m352
7 l0 -85 -85 0 -85 0 0 85 0 85 85 0 85 0 0 -85z m170 -180 l0 -85 93 -1 c50
0 130 -1 177 -2 l85 -2 3 -87 3 -88 84 0 85 0 0 -90 0 -90 90 0 90 0 0 -85 0
-85 -90 0 -90 0 0 -85 0 -85 -85 0 -85 0 0 -90 0 -90 -350 0 -350 0 0 85 0 85
85 0 85 0 0 90 0 90 -85 0 -85 0 0 85 0 85 85 0 85 0 0 90 0 90 -85 0 -85 0 0
90 0 90 85 0 85 0 0 85 0 85 85 0 85 0 0 -85z m1235 -175 l0 -85 -82 -3 -83
-3 0 91 0 91 83 -3 82 -3 0 -85z m-3345 -175 l0 -85 -85 0 -85 0 0 85 0 85 85
0 85 0 0 -85z m1760 0 l0 -85 -175 0 -175 0 0 78 c0 43 3 82 7 85 3 4 82 7
175 7 l168 0 0 -85z m1770 0 l0 -85 -90 0 -90 0 0 85 0 85 90 0 90 0 0 -85z
m-360 -180 l0 -85 -85 0 -85 0 0 85 0 85 85 0 85 0 0 -85z m-2642 -172 l3 -83
-86 0 -85 0 0 85 0 86 83 -3 82 -3 3 -82z m1232 2 l0 -85 -85 0 -85 0 0 85 0
85 85 0 85 0 0 -85z m1768 -7 l3 -88 84 0 85 0 0 -85 0 -85 -85 0 -84 0 -3
-87 -3 -88 -172 -3 -173 -2 0 85 0 85 85 0 85 0 1 93 c0 50 0 127 -1 169 -1
43 2 83 5 88 4 7 39 10 88 8 l82 -3 3 -87z m-1938 -173 l0 -85 -90 0 -90 0 0
-90 0 -90 -85 0 -85 0 0 175 0 175 175 0 175 0 0 -85z m1580 0 l0 -85 -175 0
-175 0 0 -90 0 -90 -90 0 -90 0 0 -175 0 -175 -175 0 -175 0 0 -90 0 -90 -172
3 -173 2 -3 88 -3 87 -84 0 -85 0 0 90 0 90 -90 0 -90 0 0 -95 0 -95 85 0 85
0 0 -170 0 -170 -85 0 -84 0 -3 -87 -3 -88 -87 -3 -88 -3 0 91 0 90 -175 0
-175 0 0 170 0 170 90 0 90 0 0 90 0 90 85 0 84 0 3 88 3 87 260 0 260 0 3
-87 3 -88 89 0 90 0 0 90 0 90 85 0 85 0 0 -90 0 -90 90 0 90 0 0 175 0 175
90 0 90 0 0 90 0 90 260 0 260 0 0 -85z m-1940 -350 l0 -85 -85 0 -85 0 0 85
0 85 85 0 85 0 0 -85z m1940 -90 l0 -175 -85 0 -85 0 0 90 0 90 -85 0 -85 0 0
85 0 85 170 0 170 0 0 -175z m708 88 l3 -83 -91 0 -90 0 0 -90 0 -90 -85 0
-85 0 0 175 0 175 173 -2 172 -3 3 -82z m-3708 -178 l0 -85 -85 0 -85 0 0 85
0 85 85 0 85 0 0 -85z m530 0 l0 -85 -170 0 -170 0 0 85 0 85 170 0 170 0 0
-85z m360 0 l0 -85 -85 0 -85 0 0 85 0 85 85 0 85 0 0 -85z m2990 0 l0 -85
-85 0 -85 0 0 85 0 85 85 0 85 0 0 -85z m-170 -180 l0 -85 -85 0 -85 0 0 85 0
85 85 0 85 0 0 -85z m-355 -350 l0 -260 -260 0 -260 0 -3 263 -2 262 262 -2
263 -3 0 -260z m-1585 0 l0 -85 -85 0 -85 0 0 85 0 85 85 0 85 0 0 -85z m700
0 l0 -85 -175 0 -175 0 0 -90 0 -90 -172 3 -173 2 0 85 0 85 88 3 87 3 0 84 0
85 260 0 260 0 0 -85z m180 -350 l0 -85 -175 0 -175 0 0 85 0 85 175 0 175 0
0 -85z m-710 -180 l0 -86 -82 3 -83 3 -3 83 -3 82 86 0 85 0 0 -85z m1240 0
l0 -85 -85 0 -85 0 0 85 0 85 85 0 85 0 0 -85z m350 0 l0 -85 -85 0 -85 0 0
85 0 85 85 0 85 0 0 -85z m-2470 -170 l0 -85 -85 0 -85 0 0 78 c0 43 3 82 7
85 3 4 42 7 85 7 l78 0 0 -85z m2648 -2 l3 -83 -86 0 -85 0 0 85 0 86 83 -3
82 -3 3 -82z m172 -178 l0 -85 -85 0 -85 0 0 85 0 85 85 0 85 0 0 -85z"/>
<path d="M3070 2710 l0 -90 90 0 90 0 0 90 0 90 -90 0 -90 0 0 -90z"/>
<path d="M3950 1300 l0 -90 90 0 90 0 0 90 0 90 -90 0 -90 0 0 -90z"/>
<path d="M2720 5180 l0 -90 85 0 85 0 0 -90 0 -90 265 0 265 0 0 -175 0 -175
-85 0 -85 0 0 90 0 90 -90 0 -90 0 0 -90 0 -89 88 -3 87 -3 3 -262 2 -263 90
0 90 0 0 175 0 175 85 0 85 0 0 -175 0 -175 90 0 90 0 0 440 0 440 -85 0 -85
0 0 90 0 90 85 0 85 0 0 90 0 90 -90 0 -90 0 0 -90 0 -90 -85 0 -85 0 0 90 0
90 -90 0 -90 0 0 -90 0 -90 -85 0 -85 0 0 90 0 90 -180 0 -180 0 0 -90z"/>
<path d="M3950 4650 l0 -620 620 0 620 0 0 620 0 620 -620 0 -620 0 0 -620z
m1060 0 l0 -440 -440 0 -440 0 0 440 0 440 440 0 440 0 0 -440z"/>
<path d="M4310 4650 l0 -260 260 0 260 0 0 260 0 260 -260 0 -260 0 0 -260z"/>
<path d="M70 3416 l0 -265 93 -3 c51 -2 132 -2 180 0 l87 3 0 174 0 174 -87 3
-88 3 -3 88 -3 87 -89 0 -90 0 0 -264z"/>
<path d="M1660 3240 l0 -90 90 0 90 0 0 90 0 90 -90 0 -90 0 0 -90z"/>
<path d="M70 770 l0 -620 620 0 620 0 0 620 0 620 -620 0 -620 0 0 -620z
m1060 0 l0 -440 -440 0 -440 0 0 440 0 440 440 0 440 0 0 -440z"/>
<path d="M430 770 l0 -260 260 0 260 0 0 260 0 260 -260 0 -260 0 0 -260z"/>
</g>
</svg>
