{
  "accessors": [
    {
      "bufferView": 2,
      "componentType": 5126,
      "count": 20041,
      "max": [
        7.544004917144775,
        6.5351362228393555,
        3.4326019287109375
      ],
      "min": [
        -5.9187469482421875,
        -6.6880717277526855,
        -0.14958162605762482
      ],
      "type": "VEC3"
    },
    {
      "bufferView": 2,
      "byteOffset": 240492,
      "componentType": 5126,
      "count": 20041,
      "max": [
        0.9976106882095337,
        0.9970069527626038,
        1.0
      ],
      "min": [
        -0.999870777130127,
        -0.999880313873291,
        -0.9999996423721313
      ],
      "type": "VEC3"
    },
    {
      "bufferView": 3,
      "componentType": 5126,
      "count": 20041,
      "max": [
        0.3137255012989044,
        0.30588236451148987,
        0.3333333432674408,
        1.0
      ],
      "min": [
        0.0,
        0.0,
        0.0,
        1.0
      ],
      "type": "VEC4"
    },
    {
      "bufferView": 1,
      "componentType": 5126,
      "count": 20041,
      "max": [
        0.9995284080505371,
        1.0000247955322266
      ],
      "min": [
        -3.550614201230928e-05,
        0.0003859961871057749
      ],
      "type": "VEC2"
    },
    {
      "bufferView": 0,
      "componentType": 5125,
      "count": 119994,
      "type": "SCALAR"
    },
    {
      "bufferView": 2,
      "byteOffset": 480984,
      "componentType": 5126,
      "count": 639,
      "max": [
        7.494901180267334,
        6.505810260772705,
        3.1418893337249756
      ],
      "min": [
        -5.863109111785889,
        -6.663456439971924,
        -0.10236788541078568
      ],
      "type": "VEC3"
    },
    {
      "bufferView": 2,
      "byteOffset": 488652,
      "componentType": 5126,
      "count": 639,
      "max": [
        0.9927908778190613,
        0.9997584819793701,
        0.9755661487579346
      ],
      "min": [
        -0.9954532384872437,
        -0.9992369413375854,
        -1.0
      ],
      "type": "VEC3"
    },
    {
      "bufferView": 1,
      "byteOffset": 160328,
      "componentType": 5126,
      "count": 639,
      "max": [
        0.97926926612854,
        0.9789162874221802
      ],
      "min": [
        0.016139864921569824,
        0.045525215566158295
      ],
      "type": "VEC2"
    },
    {
      "bufferView": 0,
      "byteOffset": 479976,
      "componentType": 5125,
      "count": 1890,
      "type": "SCALAR"
    },
    {
      "bufferView": 2,
      "byteOffset": 496320,
      "componentType": 5126,
      "count": 33247,
      "max": [
        7.494901180267334,
        6.4955363273620605,
        3.4258928298950195
      ],
      "min": [
        -5.840751647949219,
        -6.663456439971924,
        0.013430846855044365
      ],
      "type": "VEC3"
    },
    {
      "bufferView": 2,
      "byteOffset": 895284,
      "componentType": 5126,
      "count": 33247,
      "max": [
        0.9997538328170776,
        0.9995942115783691,
        0.9999997615814209
      ],
      "min": [
        -0.9955748319625854,
        -0.9983781576156616,
        -0.4564724564552307
      ],
      "type": "VEC3"
    },
    {
      "bufferView": 1,
      "byteOffset": 165440,
      "componentType": 5126,
      "count": 33247,
      "max": [
        0.9992120265960693,
        0.9990849494934082
      ],
      "min": [
        0.0007877349853515625,
        0.0007877349853515625
      ],
      "type": "VEC2"
    },
    {
      "bufferView": 0,
      "byteOffset": 487536,
      "componentType": 5125,
      "count": 118104,
      "type": "SCALAR"
    },
    {
      "bufferView": 2,
      "byteOffset": 1294248,
      "componentType": 5126,
      "count": 24,
      "max": [
        37.314186096191406,
        37.314186096191406,
        37.314186096191406
      ],
      "min": [
        -37.314186096191406,
        -37.314186096191406,
        -37.314186096191406
      ],
      "type": "VEC3"
    },
    {
      "bufferView": 2,
      "byteOffset": 1294536,
      "componentType": 5126,
      "count": 24,
      "max": [
        1.0,
        1.0,
        1.0
      ],
      "min": [
        -1.0,
        -1.0,
        -1.0
      ],
      "type": "VEC3"
    },
    {
      "bufferView": 1,
      "byteOffset": 431416,
      "componentType": 5126,
      "count": 24,
      "max": [
        0.9840013384819031,
        0.9879571199417114
      ],
      "min": [
        0.12795698642730713,
        0.1585443615913391
      ],
      "type": "VEC2"
    },
    {
      "bufferView": 0,
      "byteOffset": 959952,
      "componentType": 5125,
      "count": 36,
      "type": "SCALAR"
    },
    {
      "bufferView": 2,
      "byteOffset": 1294824,
      "componentType": 5126,
      "count": 44368,
      "max": [
        5.637369155883789,
        6.091827392578125,
        0.47689247131347656
      ],
      "min": [
        -4.674841403961182,
        -4.1046905517578125,
        -0.03665351867675781
      ],
      "type": "VEC3"
    },
    {
      "bufferView": 2,
      "byteOffset": 1827240,
      "componentType": 5126,
      "count": 44368,
      "max": [
        0.999980628490448,
        0.9999369978904724,
        1.0
      ],
      "min": [
        -0.999980092048645,
        -0.9999369382858276,
        -1.0
      ],
      "type": "VEC3"
    },
    {
      "bufferView": 1,
      "byteOffset": 431608,
      "componentType": 5126,
      "count": 44368,
      "max": [
        0.5746862292289734,
        0.9876474142074585
      ],
      "min": [
        0.011488139629364014,
        0.7103436589241028
      ],
      "type": "VEC2"
    },
    {
      "bufferView": 0,
      "byteOffset": 960096,
      "componentType": 5125,
      "count": 77832,
      "type": "SCALAR"
    },
    {
      "bufferView": 2,
      "byteOffset": 2359656,
      "componentType": 5126,
      "count": 24416,
      "max": [
        5.411405563354492,
        5.871232032775879,
        0.5206642150878906
      ],
      "min": [
        -4.682747840881348,
        -3.602156639099121,
        0.040953636169433594
      ],
      "type": "VEC3"
    },
    {
      "bufferView": 2,
      "byteOffset": 2652648,
      "componentType": 5126,
      "count": 24416,
      "max": [
        0.999439001083374,
        0.9999691247940063,
        0.999428927898407
      ],
      "min": [
        -0.9993765950202942,
        -0.9999630451202393,
        -0.999427855014801
      ],
      "type": "VEC3"
    },
    {
      "bufferView": 1,
      "byteOffset": 786552,
      "componentType": 5126,
      "count": 24416,
      "max": [
        0.5083772540092468,
        0.8843209743499756
      ],
      "min": [
        0.4328916072845459,
        0.8405815958976746
      ],
      "type": "VEC2"
    },
    {
      "bufferView": 0,
      "byteOffset": 1271424,
      "componentType": 5125,
      "count": 36624,
      "type": "SCALAR"
    },
    {
      "bufferView": 2,
      "byteOffset": 2945640,
      "componentType": 5126,
      "count": 3808,
      "max": [
        5.278411865234375,
        6.1003098487854,
        0.20108509063720703
      ],
      "min": [
        -4.340106010437012,
        -3.3753185272216797,
        0.012426376342773438
      ],
      "type": "VEC3"
    },
    {
      "bufferView": 2,
      "byteOffset": 2991336,
      "componentType": 5126,
      "count": 3808,
      "max": [
        0.9984952211380005,
        0.9998648166656494,
        0.6589464545249939
      ],
      "min": [
        -0.9978992342948914,
        -0.9998449087142944,
        -0.9998538494110107
      ],
      "type": "VEC3"
    },
    {
      "bufferView": 3,
      "byteOffset": 320656,
      "componentType": 5126,
      "count": 3808,
      "max": [
        0.26274511218070984,
        0.250980406999588,
        0.3137255012989044,
        1.0
      ],
      "min": [
        0.0,
        0.0,
        0.0,
        1.0
      ],
      "type": "VEC4"
    },
    {
      "bufferView": 1,
      "byteOffset": 981880,
      "componentType": 5126,
      "count": 3808,
      "max": [
        0.5746862292289734,
        0.9876474142074585
      ],
      "min": [
        0.5056118965148926,
        0.9148127436637878
      ],
      "type": "VEC2"
    },
    {
      "bufferView": 0,
      "byteOffset": 1417920,
      "componentType": 5125,
      "count": 16200,
      "type": "SCALAR"
    }
  ],
  "asset": {
    "extras": {
      "author": "Shahriar Shahrabi (https://sketchfab.com/shahriyarshahrabi)",
      "license": "CC-BY-4.0 (http://creativecommons.org/licenses/by/4.0/)",
      "source": "https://sketchfab.com/3d-models/the-vast-land-733b802f5a4743ef99ad574279d49920",
      "title": "The Vast Land"
    },
    "generator": "Sketchfab-11.81.0",
    "version": "2.0"
  },
  "bufferViews": [
    {
      "buffer": 0,
      "byteLength": 1482720,
      "name": "floatBufferViews",
      "target": 34963
    },
    {
      "buffer": 0,
      "byteLength": 1012344,
      "byteOffset": 1482720,
      "byteStride": 8,
      "name": "floatBufferViews",
      "target": 34962
    },
    {
      "buffer": 0,
      "byteLength": 3037032,
      "byteOffset": 2495064,
      "byteStride": 12,
      "name": "floatBufferViews",
      "target": 34962
    },
    {
      "buffer": 0,
      "byteLength": 381584,
      "byteOffset": 5532096,
      "byteStride": 16,
      "name": "floatBufferViews",
      "target": 34962
    }
  ],
  "buffers": [
    {
      "byteLength": 5913680,
      "uri": "scene.bin"
    }
  ],
  "extensionsUsed": [
    "KHR_materials_unlit"
  ],
  "images": [
    {
      "uri": "textures/SmallObjectsOpaque_baseColor.png"
    },
    {
      "uri": "textures/Material_baseColor.jpeg"
    },
    {
      "uri": "textures/SmallObjectTransparent_baseColor.png"
    }
  ],
  "materials": [
    {
      "extensions": {
        "KHR_materials_unlit": {}
      },
      "name": "Outline",
      "pbrMetallicRoughness": {
        "baseColorFactor": [
          0.8,
          0.8,
          0.8,
          1.0
        ],
        "metallicFactor": 0.0
      }
    },
    {
      "extensions": {
        "KHR_materials_unlit": {}
      },
      "name": "SmallObjectsOpaque",
      "pbrMetallicRoughness": {
        "baseColorTexture": {
          "index": 0
        },
        "metallicFactor": 0.0
      }
    },
    {
      "extensions": {
        "KHR_materials_unlit": {}
      },
      "name": "Material",
      "pbrMetallicRoughness": {
        "baseColorTexture": {
          "index": 1
        },
        "metallicFactor": 0.0
      }
    },
    {
      "alphaCutoff": 0.02463692550974394,
      "alphaMode": "MASK",
      "extensions": {
        "KHR_materials_unlit": {}
      },
      "name": "SmallObjectTransparent",
      "pbrMetallicRoughness": {
        "baseColorTexture": {
          "index": 2
        },
        "metallicFactor": 0.0
      }
    }
  ],
  "meshes": [
    {
      "name": "MainMeshOtuline_Outline_0",
      "primitives": [
        {
          "attributes": {
            "COLOR_0": 2,
            "NORMAL": 1,
            "POSITION": 0,
            "TEXCOORD_0": 3
          },
          "indices": 4,
          "material": 0,
          "mode": 4
        }
      ]
    },
    {
      "name": "MainMeshBounds_SmallObjectsOpaque_0",
      "primitives": [
        {
          "attributes": {
            "NORMAL": 6,
            "POSITION": 5,
            "TEXCOORD_0": 7
          },
          "indices": 8,
          "material": 1,
          "mode": 4
        }
      ]
    },
    {
      "name": "MainMesh_Material_0",
      "primitives": [
        {
          "attributes": {
            "NORMAL": 10,
            "POSITION": 9,
            "TEXCOORD_0": 11
          },
          "indices": 12,
          "material": 2,
          "mode": 4
        }
      ]
    },
    {
      "name": "Skybox_SmallObjectsOpaque_0",
      "primitives": [
        {
          "attributes": {
            "NORMAL": 14,
            "POSITION": 13,
            "TEXCOORD_0": 15
          },
          "indices": 16,
          "material": 1,
          "mode": 4
        }
      ]
    },
    {
      "name": "SmallObjects_SmallObjectsOpaque_0",
      "primitives": [
        {
          "attributes": {
            "NORMAL": 18,
            "POSITION": 17,
            "TEXCOORD_0": 19
          },
          "indices": 20,
          "material": 1,
          "mode": 4
        }
      ]
    },
    {
      "name": "SmallObjects_SmallObjectTransparent_0",
      "primitives": [
        {
          "attributes": {
            "NORMAL": 22,
            "POSITION": 21,
            "TEXCOORD_0": 23
          },
          "indices": 24,
          "material": 3,
          "mode": 4
        }
      ]
    },
    {
      "name": "RocksOutline_Outline_0",
      "primitives": [
        {
          "attributes": {
            "COLOR_0": 27,
            "NORMAL": 26,
            "POSITION": 25,
            "TEXCOORD_0": 28
          },
          "indices": 29,
          "material": 0,
          "mode": 4
        }
      ]
    }
  ],
  "nodes": [
    {
      "children": [
        1
      ],
      "matrix": [
        0.27093231678009033,
        0.0,
        0.0,
        0.0,
        0.0,
        6.015905924085859e-17,
        -0.27093231678009033,
        0.0,
        0.0,
        0.27093231678009033,
        6.015905924085859e-17,
        0.0,
        0.0,
        0.0,
        0.0,
        1.0
      ],
      "name": "Sketchfab_model"
    },
    {
      "children": [
        2
      ],
      "matrix": [
        0.009999999776482582,
        0.0,
        0.0,
        0.0,
        0.0,
        0.0,
        0.009999999776482582,
        0.0,
        0.0,
        -0.009999999776482582,
        0.0,
        0.0,
        0.0,
        0.0,
        0.0,
        1.0
      ],
      "name": "97eeb8ae11884e8fa27d6ed74509b509.fbx"
    },
    {
      "children": [
        3,
        5,
        7,
        9,
        11,
        14
      ],
      "name": "RootNode"
    },
    {
      "children": [
        4
      ],
      "matrix": [
        100.0,
        0.0,
        0.0,
        0.0,
        0.0,
        -1.629206793918314e-05,
        -99.99999999999868,
        0.0,
        0.0,
        99.99999999999868,
        -1.629206793918314e-05,
        0.0,
        0.0,
        0.0,
        0.0,
        1.0
      ],
      "name": "MainMeshOtuline"
    },
    {
      "mesh": 0,
      "name": "MainMeshOtuline_Outline_0"
    },
    {
      "children": [
        6
      ],
      "matrix": [
        100.0,
        0.0,
        0.0,
        0.0,
        0.0,
        -1.629206793918314e-05,
        -99.99999999999868,
        0.0,
        0.0,
        99.99999999999868,
        -1.629206793918314e-05,
        0.0,
        0.0,
        0.0,
        0.0,
        1.0
      ],
      "name": "MainMeshBounds"
    },
    {
      "mesh": 1,
      "name": "MainMeshBounds_SmallObjectsOpaque_0"
    },
    {
      "children": [
        8
      ],
      "matrix": [
        100.0,
        0.0,
        0.0,
        0.0,
        0.0,
        -1.629206793918314e-05,
        -99.99999999999868,
        0.0,
        0.0,
        99.99999999999868,
        -1.629206793918314e-05,
        0.0,
        0.0,
        0.0,
        0.0,
        1.0
      ],
      "name": "MainMesh"
    },
    {
      "mesh": 2,
      "name": "MainMesh_Material_0"
    },
    {
      "children": [
        10
      ],
      "matrix": [
        100.0,
        0.0,
        0.0,
        0.0,
        0.0,
        -1.629206793918314e-05,
        -99.99999999999868,
        0.0,
        0.0,
        99.99999999999868,
        -1.629206793918314e-05,
        0.0,
        0.0,
        0.0,
        0.0,
        1.0
      ],
      "name": "Skybox"
    },
    {
      "mesh": 3,
      "name": "Skybox_SmallObjectsOpaque_0"
    },
    {
      "children": [
        12,
        13
      ],
      "matrix": [
        100.0,
        0.0,
        0.0,
        0.0,
        0.0,
        -1.629206793918314e-05,
        -99.99999999999868,
        0.0,
        0.0,
        99.99999999999868,
        -1.629206793918314e-05,
        0.0,
        0.0,
        0.0,
        0.0,
        1.0
      ],
      "name": "SmallObjects"
    },
    {
      "mesh": 4,
      "name": "SmallObjects_SmallObjectsOpaque_0"
    },
    {
      "mesh": 5,
      "name": "SmallObjects_SmallObjectTransparent_0"
    },
    {
      "children": [
        15
      ],
      "matrix": [
        100.0,
        0.0,
        0.0,
        0.0,
        0.0,
        -1.629206793918314e-05,
        -99.99999999999868,
        0.0,
        0.0,
        99.99999999999868,
        -1.629206793918314e-05,
        0.0,
        0.0,
        0.0,
        0.0,
        1.0
      ],
      "name": "RocksOutline"
    },
    {
      "mesh": 6,
      "name": "RocksOutline_Outline_0"
    }
  ],
  "samplers": [
    {
      "magFilter": 9729,
      "minFilter": 9987,
      "wrapS": 10497,
      "wrapT": 10497
    }
  ],
  "scene": 0,
  "scenes": [
    {
      "name": "Sketchfab_Scene",
      "nodes": [
        0
      ]
    }
  ],
  "textures": [
    {
      "sampler": 0,
      "source": 0
    },
    {
      "sampler": 0,
      "source": 1
    },
    {
      "sampler": 0,
      "source": 2
    }
  ]
}
